<svg width="43" height="42" viewBox="0 0 43 42" fill="none" xmlns="http://www.w3.org/2000/svg">
<path d="M21.368 0C9.65029 0 0.150391 9.40247 0.150391 21C0.150391 32.5975 9.65029 42 21.368 42C33.0857 42 42.5856 32.5975 42.5856 21C42.5856 9.40247 33.0857 0 21.368 0ZM27.4626 29.279C26.5371 30.3938 25.3321 31.1457 23.9263 31.5259C23.3151 31.6901 23.0357 32.0099 23.0707 32.6407C23.0968 33.263 23.0707 33.8765 23.0619 34.4988C23.0619 35.0519 22.7738 35.3457 22.2237 35.363C21.8657 35.3716 21.5077 35.3802 21.1497 35.3802C20.8354 35.3802 20.521 35.3802 20.2067 35.3716C19.613 35.363 19.3336 35.0259 19.3336 34.4556C19.3248 34.0062 19.3248 33.5481 19.3248 33.0988C19.3161 32.0963 19.2812 32.0617 18.312 31.9062C17.0721 31.7074 15.8497 31.4309 14.7146 30.8864C13.824 30.4543 13.7279 30.2383 13.9811 29.3049C14.1732 28.6136 14.3653 27.9222 14.5836 27.2395C14.7408 26.7383 14.8892 26.5136 15.1599 26.5136C15.3171 26.5136 15.5179 26.5914 15.7886 26.7296C17.0459 27.3778 18.3818 27.7407 19.7876 27.9136C20.0233 27.9395 20.2591 27.9568 20.4949 27.9568C21.1497 27.9568 21.7871 27.8358 22.4071 27.5679C23.97 26.8938 24.2145 25.1049 22.896 24.0333C22.4507 23.6704 21.9356 23.4025 21.4029 23.1691C20.0321 22.5728 18.6088 22.1235 17.3166 21.3543C15.221 20.1099 13.8938 18.4074 14.051 15.884C14.2256 13.0321 15.8584 11.2519 18.5041 10.3012C19.5955 9.91235 19.6042 9.92099 19.6042 8.79753C19.6042 8.41728 19.5955 8.03704 19.613 7.64815C19.6392 6.80123 19.7789 6.65432 20.6346 6.6284C20.7306 6.6284 20.8354 6.6284 20.9314 6.6284C21.0973 6.6284 21.2632 6.6284 21.4291 6.6284C21.499 6.6284 21.5688 6.6284 21.6299 6.6284C23.254 6.6284 23.254 6.69753 23.2627 8.43457C23.2715 9.71358 23.2715 9.71358 24.555 9.91235C25.5417 10.0679 26.4759 10.3531 27.384 10.7506C27.8817 10.9667 28.0738 11.3123 27.9167 11.8395C27.6896 12.6173 27.4713 13.4037 27.2269 14.1728C27.0697 14.6395 26.9213 14.8556 26.6418 14.8556C26.4847 14.8556 26.2926 14.7951 26.0481 14.6741C24.7908 14.0691 23.4723 13.7753 22.0927 13.7753C21.9181 13.7753 21.7347 13.784 21.5601 13.7926C21.1497 13.8185 20.7481 13.8704 20.3639 14.0346C19.0018 14.6222 18.7835 16.1086 19.9448 17.0247C20.5298 17.4914 21.2021 17.8198 21.8919 18.1049C23.0968 18.5975 24.3018 19.0728 25.4456 19.6951C29.043 21.6827 30.0209 26.2025 27.4626 29.279Z" fill="url(#paint0_linear_57_1295)"/>
<defs>
<linearGradient id="paint0_linear_57_1295" x1="21.368" y1="0" x2="21.368" y2="42" gradientUnits="userSpaceOnUse">
<stop stop-color="white"/>
<stop offset="1" stop-color="#DADADA"/>
</linearGradient>
</defs>
</svg>
