<svg width="24" height="24" viewBox="0 0 24 24" fill="none" xmlns="http://www.w3.org/2000/svg">
<path d="M23.3683 12.28C23.3683 11.4921 23.292 10.6788 23.1649 9.91626H12.1594V14.4151H18.4628C18.2086 15.8638 17.3699 17.1347 16.1245 17.948L19.8862 20.8709C22.0974 18.8122 23.3683 15.813 23.3683 12.28Z" fill="#2A60A3"/>
<path d="M12.1599 23.667C15.3116 23.667 17.955 22.6249 19.8867 20.8457L16.125 17.9481C15.0829 18.6598 13.7358 19.0665 12.1599 19.0665C9.10992 19.0665 6.54281 17.0077 5.60238 14.2627L1.73901 17.2365C3.72153 21.1761 7.73741 23.667 12.1599 23.667Z" fill="#57C25E"/>
<path d="M5.60244 14.2358C5.11952 12.787 5.11952 11.2111 5.60244 9.76238L1.73907 6.76318C0.0869752 10.0674 0.0869752 13.9562 1.73907 17.235L5.60244 14.2358Z" fill="#FFB037"/>
<path d="M12.1599 4.95957C13.812 4.93416 15.4387 5.56958 16.6333 6.71334L19.9629 3.35831C17.8533 1.37579 15.0575 0.308279 12.1599 0.333696C7.73741 0.333696 3.72153 2.82455 1.73901 6.76417L5.60238 9.76337C6.54281 6.99293 9.10992 4.95957 12.1599 4.95957Z" fill="#FA3E22"/>
</svg>
