<svg width="167" height="166" viewBox="0 0 167 166" fill="none" xmlns="http://www.w3.org/2000/svg">
<circle cx="160" cy="25" r="7" fill="#C9C1F5"/>
<circle cx="14" cy="9" r="9" fill="#96D7FF"/>
<circle cx="4.5" cy="122.5" r="4.5" fill="#FF99B1"/>
<ellipse cx="93.5" cy="4" rx="2.5" ry="2" fill="#01B8D8" fill-opacity="0.3"/>
<circle cx="53" cy="163" r="3" fill="#01B8D8" fill-opacity="0.3"/>
<ellipse cx="152.5" cy="102" rx="2.5" ry="2" fill="#FF99B1"/>
<rect x="8.75" y="6.75" width="150.5" height="150.5" rx="75.25" stroke="#2A9D8F" stroke-opacity="0.14" stroke-width="1.5" stroke-dasharray="8 8"/>
<rect x="30" y="28" width="108" height="108" rx="54" fill="#EDF4FC"/>
<rect x="44" y="42" width="80" height="80" rx="40" fill="#01B8D8"/>
<g opacity="0.7" clip-path="url(#clip0_1401_26345)">
<path d="M84 90.2343C83.8174 90.2343 83.6348 90.1842 83.4737 90.0839L67 79.8306V98.0038C67 98.5539 67.446 98.9999 67.9961 98.9999H100.004C100.554 98.9999 101 98.5539 101 98.0038V79.8306L84.5263 90.0839C84.3652 90.1842 84.1826 90.2343 84 90.2343Z" fill="white"/>
<path d="M100.087 78.0521L97.2812 75.7234V79.7986L100.087 78.0521Z" fill="white"/>
<path d="M67.9126 78.0521L70.7187 79.7986V75.7234L67.9126 78.0521Z" fill="white"/>
<path d="M84.6359 65.2295C84.267 64.9235 83.7325 64.9235 83.3637 65.2295L81.2397 66.9922H86.7599L84.6359 65.2295Z" fill="white"/>
<path d="M85.2917 77.7722C85.2588 76.5958 84.6448 75.783 83.7754 75.783C82.9409 75.783 82.0776 76.5708 82.0776 77.8892C82.0776 79.2644 82.9278 80.1155 83.7154 80.1155C84.5553 80.1155 85.244 79.1774 85.2906 77.9993L85.2917 77.7722Z" fill="white"/>
<path d="M94.293 68.9844H73.707C73.1569 68.9844 72.7109 69.4304 72.7109 69.9805V81.0386L84 88.065L95.2891 81.0386V69.9805C95.2891 69.4304 94.8431 68.9844 94.293 68.9844ZM89.7672 79.8903C89.4138 80.779 88.5496 81.7287 87.1839 81.7287C86.7081 81.7287 86.2506 81.5324 85.8959 81.1759C85.7501 81.0293 85.6276 80.8612 85.5313 80.6788C85.0371 81.1591 84.4084 81.4436 83.7154 81.4436C82.08 81.4436 80.7495 79.8492 80.7495 77.8893C80.7495 75.7395 82.288 74.4549 83.7754 74.4549C84.3513 74.4549 84.8718 74.6306 85.3056 74.9431L85.3067 74.7142C85.3085 74.3485 85.6056 74.0534 85.9707 74.0534H85.9741C86.3408 74.0552 86.6367 74.354 86.6349 74.7207L86.6197 77.7863C86.6202 77.8148 86.6213 77.8432 86.6213 77.8719C86.6213 77.9179 86.6199 77.9633 86.6185 78.0088L86.6103 79.6721C86.6092 79.8833 86.6941 80.0953 86.8372 80.2391C86.8972 80.2994 87.0221 80.4006 87.1838 80.4006C88.0422 80.4006 88.4133 79.7005 88.533 79.3995C88.9693 78.3023 89.0504 77.4348 88.8035 76.5011C88.4135 75.2187 87.5458 74.1688 86.3593 73.5439C85.1699 72.9175 83.8087 72.7972 82.5264 73.2055C79.9988 74.0101 78.5471 76.6484 79.2212 79.2119C79.781 81.3403 81.7051 82.8693 83.9004 82.93C84.267 82.9401 84.556 83.2456 84.5459 83.6121C84.5359 83.9725 84.2406 84.2579 83.8824 84.2579C83.8762 84.2579 83.87 84.2578 83.8637 84.2576C82.5306 84.2208 81.2145 83.7471 80.158 82.924C79.0606 82.069 78.2925 80.9022 77.9368 79.5497C77.5261 77.9881 77.7328 76.3415 78.5189 74.9135C79.3046 73.4859 80.5848 72.4299 82.1236 71.94C83.7476 71.4231 85.4717 71.5753 86.9783 72.3688C88.4851 73.1625 89.586 74.4974 90.0781 76.1277C90.0802 76.1346 90.0821 76.1414 90.084 76.1483C90.4094 77.3671 90.3116 78.5212 89.7672 79.8903V79.8903Z" fill="white"/>
</g>
<defs>
<clipPath id="clip0_1401_26345">
<rect width="34" height="34" fill="white" transform="translate(67 65)"/>
</clipPath>
</defs>
</svg>
