<svg width="25" height="20" viewBox="0 0 25 20" fill="none" xmlns="http://www.w3.org/2000/svg">
<path d="M24.1667 2.43536C23.2617 2.84175 22.3018 3.1085 21.319 3.22675C22.3427 2.60474 23.1288 1.61976 23.499 0.446173C22.5257 1.03161 21.4609 1.44409 20.3506 1.66579C19.4461 0.689044 18.1577 0.0786133 16.7315 0.0786133C13.9933 0.0786133 11.7733 2.32895 11.7733 5.10445C11.7733 5.49842 11.8172 5.88196 11.9017 6.2499C7.7811 6.04024 4.12778 4.03938 1.68232 0.998613C1.25563 1.74091 1.01113 2.60435 1.01113 3.52531C1.01113 5.26904 1.88651 6.80732 3.21681 7.70866C2.42946 7.68366 1.65943 7.4681 0.971009 7.07995C0.970726 7.10101 0.970726 7.12206 0.970726 7.14321C0.970726 9.57833 2.67976 11.6097 4.94784 12.0714C4.21773 12.2727 3.4519 12.3022 2.70884 12.1576C3.33972 14.1543 5.17082 15.6073 7.34034 15.648C5.64348 16.9959 3.50558 17.7995 1.18275 17.7995C0.78249 17.7995 0.387894 17.7756 0 17.7292C2.19416 19.1553 4.80029 19.9873 7.60023 19.9873C16.72 19.9873 21.707 12.3289 21.707 5.68732C21.707 5.46933 21.7022 5.25258 21.6926 5.03708C22.6633 4.32578 23.5011 3.44475 24.1667 2.43536Z" fill="#55ACEE"/>
</svg>
